<svg width="60" height="60" viewBox="0 0 60 60" fill="none" xmlns="http://www.w3.org/2000/svg">
<g clip-path="url(#clip0_7046_3890)">
<path d="M45.8755 31.4337C46.396 34.2977 48.5155 40.6475 57.1547 43.9883V31.4337H45.8755ZM57.1547 47.0327C51.2082 44.9906 47.7369 41.6741 45.7119 38.5103V57.1337H57.1547V47.0327ZM14.2892 38.5103C12.2642 41.6741 8.79184 44.9906 2.84642 47.0327V57.1337H14.2892V38.5103ZM2.84642 43.9883C11.4867 40.6475 13.6062 34.2977 14.1256 31.4337H2.84532V43.9883H2.84642ZM15.1403 28.5674C15.4137 25.1779 16.614 22.4234 18.3886 20.3083L9.94271 11.8002C5.88612 16.2749 3.278 22.1114 2.87827 28.5674H15.1403ZM41.5971 20.3238C43.364 22.4367 44.5599 25.1868 44.8323 28.5674H57.1239C56.7242 22.1114 54.1161 16.2749 50.0595 11.8002L41.5971 20.3249V20.3238ZM31.4227 2.90055V15.2218C34.3536 15.4773 37.2154 16.5161 39.5435 18.3392L48.0334 9.78687C43.5617 5.78119 37.7755 3.24238 31.4227 2.90055ZM29.8611 0.00663741C29.9061 0.00221247 29.9533 0 29.9995 0C30.0456 0 30.0928 0.00221247 30.1378 0.00663741C38.1774 0.0575242 45.4868 3.28994 50.8622 8.53239C50.9479 8.61757 51.039 8.70165 51.1225 8.78904C56.3772 14.0381 59.7222 21.2397 59.9945 29.2577V29.3031H60V58.5674C60 59.3584 59.3631 60.0011 58.5779 60.0011H1.42211C0.636931 60.0011 0 59.3595 0 58.5674V29.3031C0 29.2422 0.00329447 29.1814 0.0109816 29.1216C0.316269 21.159 3.65247 14.0094 8.8775 8.79015C8.95986 8.70275 9.05101 8.61868 9.13776 8.5335C14.5132 3.28994 21.8226 0.0575242 29.8611 0.00663741ZM28.5773 15.2185V2.90055C22.2256 3.24238 16.4383 5.78119 11.9666 9.78687L20.4422 18.3259C22.7758 16.505 25.642 15.4696 28.5762 15.2196L28.5773 15.2185ZM34.3899 57.1337V51.5107C34.3899 50.6269 33.9385 49.8547 33.261 49.2385C32.3901 48.4487 31.1833 47.9122 30.0005 47.6843C28.8178 47.9111 27.6099 48.4487 26.7401 49.2385C26.0626 49.8536 25.6112 50.6269 25.6112 51.5107V57.1337H34.391H34.3899ZM22.7648 57.1337V51.5107C22.7648 49.7264 23.5939 48.2418 24.8392 47.1124C26.1757 45.8988 28.0239 45.1045 29.7776 44.8247C29.9412 44.7981 30.1016 44.8014 30.2553 44.8302C31.9992 45.1145 33.832 45.9066 35.1608 47.1124C36.4061 48.2429 37.2352 49.7275 37.2352 51.5107V57.1337H42.8655V31.0985L29.9852 27.6293L17.1334 31.0985V57.1348H22.7648V57.1337ZM41.9002 27.8749C41.4961 25.1403 40.3298 22.9831 38.7188 21.399C38.6826 21.3692 38.6463 21.3371 38.6134 21.3028L38.5618 21.2475C36.3095 19.1224 33.2247 18.0449 30.1181 18.015C30.0796 18.0184 30.0401 18.0195 30.0005 18.0195C29.961 18.0195 29.9204 18.0173 29.8809 18.0139C26.7775 18.0372 23.6916 19.1069 21.4349 21.222L21.3734 21.2884C21.335 21.3271 21.2944 21.3636 21.2526 21.3968C19.6383 22.9831 18.471 25.1436 18.068 27.8816L29.6184 24.7642C29.8721 24.6956 30.1279 24.7011 30.364 24.7675L41.9002 27.8749Z" fill="#FFD012"/>
</g>
<defs>
<clipPath id="clip0_7046_3890">
<rect width="60" height="60" fill="white"/>
</clipPath>
</defs>
</svg>
